<svg width="50" height="47" viewBox="0 0 50 47" fill="none" xmlns="http://www.w3.org/2000/svg">
<path fill-rule="evenodd" clip-rule="evenodd" d="M31.4438 5.31425L43.1871 7.38465C45.5648 7.8037 46.3837 8.2027 47.1709 8.82179C47.9587 9.4396 48.52 10.242 48.8323 11.1936C49.1433 12.1446 49.2389 13.0505 48.8199 15.4282L44.4076 40.4408C43.9898 42.8191 43.5895 43.6373 42.9714 44.4242C42.3536 45.212 41.5502 45.7737 40.5996 46.0856C39.6486 46.3966 38.7417 46.4926 36.364 46.0735L26.8423 44.3938L32.9976 42.1546C36.4557 40.8959 37.6977 40.0395 38.7506 38.8975L38.859 38.7772C39.9384 37.5734 40.6072 36.1392 40.8364 34.5382C41.0573 32.9903 40.9637 31.5547 39.7817 28.2284L39.6551 27.8776L31.4435 5.31647L31.4438 5.31425ZM18.1644 1.31276C20.4328 0.487128 21.3418 0.42338 22.333 0.564911C23.3232 0.706784 24.2114 1.12097 24.957 1.78929C25.7025 2.4576 26.2386 3.19364 27.0646 5.463L35.7512 29.3293C36.5768 31.5977 36.6396 32.5071 36.4978 33.4973C36.3562 34.4885 35.9421 35.3767 35.2747 36.1219C34.6064 36.8675 33.869 37.403 31.6006 38.2286L19.2004 42.7419C16.932 43.5675 16.0233 43.6322 15.0318 43.4897C14.0416 43.3479 13.1534 42.9337 12.4078 42.2654C11.6626 41.598 11.1262 40.861 10.3006 38.5926L1.61394 14.7263C0.787961 12.4569 0.725495 11.5485 0.867026 10.5573C1.00856 9.56613 1.42275 8.67791 2.09012 7.93271C2.75844 7.18717 3.49576 6.6517 5.76418 5.82606L18.1644 1.31276ZM15.5621 34.7748C14.4815 35.1681 13.9389 36.4053 14.3514 37.5386C14.7635 38.6709 15.9744 39.2699 17.055 38.8765C18.1357 38.4832 18.6792 37.2457 18.2671 36.1134C17.8546 34.9801 16.6437 34.3811 15.5621 34.7748ZM15.2684 16.9514L15.2124 17.1133L13.5278 22.6802C13.2678 23.5389 13.5407 24.4495 14.2025 24.9812L14.3394 25.0825L18.955 28.1881C19.1271 28.3043 19.3168 28.3927 19.5154 28.4503C20.5699 28.7539 21.6904 28.1545 22.0957 27.1014L22.1517 26.9395L23.8366 21.3735C24.0963 20.5139 23.8237 19.6043 23.1619 19.0725L23.0251 18.9712L18.4092 15.8646C18.2371 15.7485 18.0477 15.661 17.8487 15.6025C16.7946 15.2998 15.6737 15.8982 15.2684 16.9514ZM40.6813 13.5899C40.4718 14.7772 41.2215 15.9016 42.3541 16.1012C43.4877 16.3006 44.5759 15.5012 44.7855 14.3139C44.9941 13.1269 44.2452 12.0022 43.1126 11.8026C41.9791 11.6032 40.8909 12.4026 40.6813 13.5899ZM20.3094 5.17716C19.2278 5.57083 18.6853 6.80801 19.0974 7.94034C19.5099 9.07361 20.7208 9.67259 21.8023 9.27892C22.883 8.8856 23.4256 7.64841 23.0131 6.51514C22.601 5.38281 21.3901 4.78384 20.3094 5.17716Z" fill="url(#paint0_linear)"/>
</svg>
