<svg xmlns="http://www.w3.org/2000/svg" width="528" height="15" viewBox="0 0 528 15">
    <g fill="#FFF" fill-rule="evenodd" opacity=".6">
        <path d="M12.3 12.039l1.762-10.366h2.816L15.116 12.04zM25.36 1.932a7.075 7.075 0 0 0-2.539-.431c-2.798 0-4.768 1.399-4.768 3.42-.017 1.486 1.4 2.315 2.47 2.816 1.106.501 1.469.83 1.469 1.278 0 .692-.881 1.02-1.693 1.02a5.67 5.67 0 0 1-2.66-.553l-.363-.156-.398 2.315c.657.294 1.883.536 3.145.553 2.971 0 4.889-1.382 4.923-3.541.017-1.175-.743-2.073-2.367-2.816-.984-.484-1.589-.795-1.589-1.279 0-.432.518-.898 1.624-.898a5.144 5.144 0 0 1 2.108.397l.259.121.38-2.246"/>
        <path fill-rule="nonzero" d="M32.617 1.69H30.44c-.674 0-1.175.19-1.486.864l-4.198 9.502h2.971s.484-1.278.605-1.555h3.61c.087.363.346 1.555.346 1.555h2.626L32.617 1.691zm-3.49 6.686c.242-.604 1.123-2.902 1.123-2.902-.018.035.224-.605.38-.985l.19.899s.535 2.47.656 2.988h-2.35z"/>
        <path d="M9.916 1.69L7.152 8.757l-.294-1.434C6.34 5.664 4.734 3.867 2.954 2.97l2.522 9.07h2.99L12.904 1.69H9.916"/>
        <path d="M4.595 1.673H.035L0 1.898c3.542.864 5.891 2.937 6.858 5.424l-.984-4.768c-.173-.656-.674-.846-1.279-.88"/>
        <path fill-rule="nonzero" d="M305.786 5.566c-.328-.986-.72-2.221-1.048-3.207h-1.58l-2.956 8.853h1.674l.626-1.861 2.893-.016.641 1.861h1.658c-.234-.672-.453-1.36-.672-2.002-.407-1.204-.83-2.424-1.236-3.628zm-2.815 2.314l.97-3.018 1 3.018h-1.97zM300.5 4.314c-.141-.719-.5-1.313-1.173-1.642-.58-.25-1.048-.313-1.8-.313h-2.72v8.837h1.642v-.375-2.596c.766 0 1.814.03 2.55-.25.562-.22 1.016-.564 1.282-1.111.36-.813.39-1.674.219-2.55zm-1.924 1.658c-.157.438-.454.704-.907.767-.391.047-1.22.062-1.22.062v-3.05s1.267-.03 1.704.235c.298.188.438.485.47.798.062.406.094.813-.047 1.188z"/>
        <path d="M312.152 2.36l-1.533 3.221-1.533-3.222h-1.814c.438.97.907 2.002 1.33 2.925.343.735 1.141 2.58 1.141 2.58l-.016 3.332h1.72V7.865c.58-1.251 1.19-2.596 1.768-3.848.235-.516.516-1.11.751-1.658-.594 0-1.251-.015-1.814 0zM322.928 7.396h2.643V5.91h-2.643V3.845h2.972V2.36h-4.63v8.837h5.13V9.71h-3.472zM316.656 7.396h2.643V5.91h-2.643V3.845h2.972V2.36h-4.63v8.837h5.115V9.71h-3.457z"/>
        <path fill-rule="nonzero" d="M331.655 7.427c.97-.375 1.705-1.298 1.705-2.456 0-1.673-1.157-2.612-2.596-2.612H327.464v8.837h1.673V7.615h.657l1.971 3.581h1.97l-2.08-3.77zm-1.25-1.251h-1.268V3.814h1.173c.626 0 1.142.407 1.142 1.157 0 .657-.47 1.205-1.048 1.205z"/>
        <g fill-rule="nonzero">
            <path d="M271.883 3.402v6.54a.183.183 0 0 1-.182.182h-1.33a.183.183 0 0 1-.182-.183v-6.54c0-.09.072-.182.182-.182h1.33c.109.019.182.092.182.183zm10.402-.164h-1.494a.175.175 0 0 0-.164.127l-1.184 3.862-1.294-3.862a.175.175 0 0 0-.164-.127h-1.038a.175.175 0 0 0-.164.127l-1.293 3.862-1.184-3.862a.175.175 0 0 0-.164-.127h-1.494a.166.166 0 0 0-.146.073.177.177 0 0 0-.018.164l2.186 6.54a.175.175 0 0 0 .164.127h1.184a.175.175 0 0 0 .164-.128l1.293-3.825 1.294 3.825a.175.175 0 0 0 .164.128h1.184a.175.175 0 0 0 .164-.128l2.186-6.54c.018-.054 0-.109-.018-.163a.223.223 0 0 0-.164-.073zm2.258 0h-1.33a.183.183 0 0 0-.182.182V9.94c0 .092.073.183.183.183h1.33a.183.183 0 0 0 .182-.183v-6.54c-.019-.09-.091-.163-.183-.163zm-15.12 6.667c.073.091.019.219-.109.219h-1.64a.23.23 0 0 1-.163-.073l-.274-.328a3.618 3.618 0 0 1-1.967.583 3.615 3.615 0 0 1-3.607-3.607 3.615 3.615 0 0 1 3.607-3.607 3.615 3.615 0 0 1 3.607 3.607c0 .71-.219 1.384-.583 1.95l1.13 1.256zm-3.242-1.457l-.71-.856c-.073-.092-.019-.22.109-.22h1.494a2.09 2.09 0 0 0 .109-.673c0-1.075-.802-2.004-1.913-2.004s-1.913.93-1.913 2.004c0 1.075.802 2.004 1.913 2.004.328-.037.638-.11.91-.255zm-8.635 1.42c.037.274-.036.383-.127.383s-.219-.11-.347-.328c-.145-.218-.182-.455-.127-.583.036-.09.146-.127.255-.073.237.092.328.438.346.602zm-1.275.584c.273.236.364.51.219.71-.073.11-.219.164-.365.164a.65.65 0 0 1-.419-.146c-.255-.218-.328-.583-.164-.783a.396.396 0 0 1 .292-.128c.145.019.31.073.437.183zm-.455 2.258c1.184 0 2.477.401 3.916 1.676.146.128.328-.036.2-.182-1.402-1.767-2.714-2.113-4.007-2.404-1.585-.347-2.405-1.24-2.97-2.223-.109-.2-.163-.164-.182.091-.018.31 0 .71.073 1.111h-.2a4.113 4.113 0 0 1-4.117-4.117 4.113 4.113 0 0 1 4.117-4.117 4.113 4.113 0 0 1 4.117 4.117c0 .164 0 .328-.018.474-.292-.055-.893-.055-1.312-.018-.164.018-.128.091-.018.11 1.366.236 2.295 1.092 2.514 2.622 0 .037.054.055.073.019a6.11 6.11 0 0 0 .874-3.188 6.208 6.208 0 0 0-6.212-6.212 6.208 6.208 0 0 0-6.212 6.212 6.22 6.22 0 0 0 6.212 6.212c.93 0 1.822-.183 3.152-.183z"/>
        </g>
        <g>
            <path d="M447.683 4.854v1.767l4.732-.52V4.19zM449.197 6.716v6.01h1.72V6.542zM453.046 4.113v8.613h1.83V3.845zM455.207 3.797v1.988l2.635-.284V3.434zM455.207 7.268V9.27l1.736-.094V7.11zM455.207 10.738v1.988h2.635V10.66zM464.657 2.472v10.254h2.382V2.141zM467.48 2.078v2.35l3.487-.378V1.589zM467.48 6.21V8.61l2.288-.126V6.006zM467.48 10.36v2.366h3.487V10.25zM458.536 3.34v9.386h2.082V3.04zM460.997 10.55v2.176h3.013V10.47zM478.776 1.478c-.758-.71-1.862-1.01-3.077-.836v2.619c.49-.032.884.158 1.073.52.284.584-.016 1.452-.694 2.24-1.057 1.247-3.85 3.77-3.85 3.77l4.008-.125c2.445-2.398 3.328-3.85 3.486-5.664a3.011 3.011 0 0 0-.946-2.524M471.74 10.234v2.492h8.124V9.981z"/>
            <path d="M475.226.705c-2.366.505-3.518 2.24-3.392 5.08l2.524-.22c-.11-1.61.38-1.989.868-2.194V.705z"/>
        </g>
        <g>
            <path d="M506.665 4.894c-1.351 0-2.11.772-2.303 2.33l-.151 1.586c-.055.662-.372 1.034-.952 1.116-.151 0-.234.083-.234.235v.634c0 .138.083.22.234.22 1.283 0 2-.744 2.137-2.26l.152-1.393c.041-.538.138-.868.276-1.02.151-.193.455-.29.896-.29h1.02v4.688c0 .138.07.22.22.22h.731c.138 0 .221-.082.221-.22V5.129c0-.152-.083-.235-.22-.235h-2.027zM498.351 8.41V5.129c0-.152-.082-.235-.234-.235h-.758c-.138 0-.22.083-.22.235v3.667c0 1.503.716 2.261 2.136 2.261.703 0 1.351-.248 1.972-.758l.124.537c.069.083.124.124.193.124h.537c.152 0 .235-.068.235-.193V5.13c0-.152-.083-.235-.248-.235h-.731c-.152 0-.234.083-.234.235v3.943c-.442.537-1.007.8-1.655.8-.744 0-1.117-.497-1.117-1.462zM496.256 8.217c0-1.875-1.02-2.813-3.06-2.813h-1.531V3.557h3.53c.15 0 .22-.083.234-.248v-.676c-.014-.165-.083-.248-.235-.248h-4.55c-.151 0-.234.083-.234.248V8.41c0 1.723.814 2.578 2.427 2.578h.22c2.123 0 3.199-.924 3.199-2.771zm-3.033-1.668c1.172 0 1.75.565 1.75 1.668 0 1.075-.578 1.613-1.75 1.627h-.386c-.786-.014-1.186-.441-1.186-1.31V6.549h1.572zM526.587 7.32h-2.758V5.116c0-.152-.082-.234-.234-.234h-.745c-.137 0-.206.082-.193.234v5.611c-.013.138.056.22.193.22h.745c.152 0 .234-.082.234-.22V8.41h2.758v2.33c0 .138.082.22.248.22h.73c.152 0 .235-.082.235-.22V5.129c0-.152-.083-.235-.234-.235h-.731c-.152 0-.248.083-.248.235V7.32zM521.03 4.894h-.744c-.165 0-.248.083-.248.235v3.943c-.441.537-.993.8-1.654.8-.731 0-1.117-.497-1.117-1.462V5.129c0-.152-.083-.235-.22-.235h-.731c-.166 0-.249.083-.249.235v3.667c0 1.503.717 2.261 2.137 2.261.759 0 1.42-.248 1.986-.758l.11.537c.069.083.124.124.207.124h.537c.138 0 .221-.068.221-.193V5.13c-.028-.152-.097-.235-.234-.235zM521.21 2.633c0-.165-.083-.248-.235-.248h-4.673c-.166 0-.248.083-.248.248v.676c0 .165.082.248.248.248h4.673c.152 0 .235-.083.235-.248v-.676zM513.42 6.039c.11.151.18.413.18.758v.138l-1.338.069c-1.503.096-2.247.758-2.247 2.013 0 1.35.758 2.04 2.289 2.04.551 0 1.061-.138 1.558-.441l.096.22c.083.083.165.124.22.124h.456c.11 0 .179-.068.179-.193V6.811c0-1.407-.772-2.123-2.358-2.123-.675 0-1.282.096-1.806.317-.083.082-.138.151-.138.22v.676a.487.487 0 0 0 .097.193c.083.014.151.027.193.027.482-.193 1.048-.275 1.654-.275.469-.028.786.055.965.193zm-1.116 3.887c-.69 0-1.02-.303-1.02-.91-.014-.592.303-.91.95-.965l1.338-.124.028 1.627c-.442.248-.883.372-1.296.372z"/>
        </g>
        <g>
            <path fill-rule="nonzero" d="M195.1 10.669c-1.482 0-2.223-.58-2.223-1.595 0-1.337 1.401-1.61 2.883-1.691v-.258c0-.516-.354-.709-.918-.709-.467 0-1.03.145-1.385.29l-.306-.838a4.99 4.99 0 0 1 1.82-.354c1.257 0 1.965.5 1.965 1.756v3.028c-.354.21-1.095.37-1.836.37zm.66-2.48c-.918.047-1.723.128-1.723.869 0 .467.37.725 1.015.725.257 0 .58-.048.708-.097V8.188zM199.772 10.669c-1.595 0-2.465-.934-2.465-2.545 0-1.515.79-2.546 2.303-2.546.258 0 .548.049.71.097V3.372h1.256v6.926c-.355.21-1.047.37-1.804.37zm.547-4.043c-.096-.049-.354-.097-.58-.097-.773 0-1.192.644-1.192 1.579 0 .998.42 1.578 1.192 1.578.226 0 .467-.048.58-.096V6.626z"/>
            <path d="M205.216 10.556h-1.45l-1.788-4.93h1.402l.902 3.078c.113.37.177.789.177.789h.016s.08-.419.177-.79l.903-3.076h1.401l-1.74 4.93zM209.018 10.669c-1.144 0-2.207-.822-2.207-2.578 0-1.755 1.047-2.56 2.207-2.56.58 0 .999.128 1.305.337l-.387.902c-.177-.144-.45-.209-.725-.209-.612 0-1.095.516-1.095 1.53 0 1.015.5 1.53 1.095 1.53.29 0 .548-.08.725-.225l.387.935c-.322.209-.725.338-1.305.338z"/>
            <path fill-rule="nonzero" d="M213.013 10.669c-1.482 0-2.223-.58-2.223-1.595 0-1.337 1.401-1.61 2.883-1.691v-.258c0-.516-.354-.709-.918-.709-.467 0-1.03.145-1.385.29l-.306-.838a4.99 4.99 0 0 1 1.82-.354c1.257 0 1.965.5 1.965 1.756v3.028c-.354.21-1.095.37-1.836.37zm.66-2.48c-.918.047-1.723.128-1.723.869 0 .467.37.725 1.015.725.257 0 .58-.048.708-.097V8.188z"/>
            <path d="M217.008 10.669c-.612 0-1.224-.161-1.595-.355l.403-.95c.242.161.79.322 1.144.322.45 0 .74-.21.74-.531 0-.37-.322-.516-.756-.677-.629-.225-1.402-.515-1.402-1.482 0-.87.66-1.45 1.804-1.45a3.28 3.28 0 0 1 1.514.355l-.386.853c-.21-.128-.644-.29-.983-.29-.435 0-.692.226-.692.516 0 .37.322.515.74.676.645.242 1.45.516 1.45 1.515.016.886-.676 1.498-1.981 1.498zM222.34 10.556V7.334c0-.531-.322-.805-.902-.805-.242 0-.516.08-.709.177v3.85h-1.24V3.388h1.24v2.4c.29-.145.66-.226 1.031-.226 1.16 0 1.82.58 1.82 1.66v3.334h-1.24z"/>
            <path fill-rule="nonzero" d="M224.87 5.063h5.041l.564 1.192h-4.736l-.87-1.192zm3.156 6.057h-1.965l1.16-2.465h1.965l-1.16 2.465zm-.757-2.787l-.87-1.192h4.495l.564 1.192h-4.189zm5.896 2.787l-2.996-6.395.435.934-.435-.934h-1.08l1.53-3.238 4.528 9.633h-1.982zm.5-3.979h.982l-.58.87-.402-.87zm1.707-.886h-2.11l-.564-1.192h3.544l-.87 1.192z"/>
        </g>
        <g>
            <path d="M82.241.517c.948 0 1.831.225 2.618.61.129.065.241.129.37.193l-.546.498-.836-.851L82.45 2.22l-.835-.9-2.602 2.345 1.67 1.847-.658.578 1.638 1.848-.659.578 2.345 2.618 1.398-1.285 1.204 1.381c-.24.193-.497.37-.787.53a5.928 5.928 0 0 1-2.955.787c-3.277-.048-5.959-2.73-5.959-6.039A5.991 5.991 0 0 1 82.241.517z"/>
            <path d="M81.149 6.139l1.43-1.285 1.268 1.413-1.413 1.285zM82.16 8.596l1.43-1.285 1.285 1.43-1.43 1.285zM80.121 3.697l1.43-1.285 1.284 1.43-1.43 1.285zM82.74 3.007l1.075-.964.964 1.076-1.076.964zM84.634 7.408l1.077-.948.963 1.06-1.076.964zM85.582 9.576l1.06-.964.964 1.06-1.06.964zM86.016 4.629l.706-.643.643.707-.707.643zM85.1 2.509l.707-.643.642.723-.706.626zM86.915 6.749l.723-.642.642.706-.722.643zM83.719 5.159l1.076-.964.964 1.076-1.076.948zM104.728 4.211l-.032.016-.032-.016c-.241-.225-.514-.305-.852-.305-.77 0-1.268.53-1.268 1.381v3.92h.77v-3.92c0-.562.386-.61.498-.61a.5.5 0 0 1 .338.112c.112.113.16.274.16.498v3.92h.771v-3.92c0-.562.386-.61.498-.61a.5.5 0 0 1 .338.112c.112.113.16.274.16.498v3.92h.771v-3.92c0-.433-.128-.787-.385-1.044a1.293 1.293 0 0 0-.9-.337 1.149 1.149 0 0 0-.835.305z"/>
            <path fill-rule="nonzero" d="M110.35 5.705c-.257-.273-.675-.498-1.27-.498-.561 0-.979.241-1.236.498-.401.434-.482 1.044-.482 1.526 0 .466.08 1.076.482 1.526.257.273.675.498 1.237.498.578 0 1.012-.241 1.269-.498.401-.434.482-1.044.482-1.526s-.08-1.092-.482-1.526zm-.305 1.703c0 .369 0 .787-.273 1.076-.113.112-.322.257-.675.257a.902.902 0 0 1-.659-.257c-.273-.305-.273-.723-.273-1.076v-.354c0-.37 0-.787.273-1.076.113-.128.322-.273.659-.273.353 0 .562.145.675.273.273.29.273.707.273 1.076v.354z"/>
            <path d="M111.474 5.271l.643.016v.354c.192-.129.353-.241.546-.305.24-.097.401-.129.642-.129.337 0 .675.064.964.386.273.305.321.674.321.995V9.19h-.723V6.54c0-.642-.401-.803-.739-.803-.337 0-.674.145-.963.402v3.068h-.707V5.27h.016z"/>
            <path fill-rule="nonzero" d="M118.076 8.42a2.18 2.18 0 0 1-.466.176 1.942 1.942 0 0 1-.61.097c-.37 0-.707-.129-.884-.322-.128-.128-.273-.401-.273-.867v-.096h2.41V7.23c0-.627-.017-1.14-.418-1.558-.257-.273-.643-.466-1.14-.466-.547 0-.948.241-1.19.514-.4.466-.45 1.06-.45 1.446 0 .433.065 1.076.467 1.526.257.305.706.562 1.365.562.29 0 .61-.032.916-.16.16-.065.353-.162.481-.226l-.208-.45zm-2.217-1.623c0-.45.145-.707.257-.819a.741.741 0 0 1 .594-.257c.21 0 .402.048.546.193.257.24.257.546.257.819v.16h-1.654v-.096z"/>
            <path d="M122.14 5.287l-1.527 4.594c-.048.209-.208.53-.369.723a.996.996 0 0 1-.771.321c-.209 0-.418-.048-.61-.16-.129-.08-.241-.161-.322-.241l.338-.418c.048.048.128.112.209.16.112.065.24.097.369.097a.502.502 0 0 0 .418-.209c.08-.096.16-.337.208-.482l.097-.305-1.67-4.08h.77l.98 2.442c.096.24.209.594.225.69h.032c.129-.465.177-.626.273-.915l.707-2.217h.642zM92.087 8.95l.016-.033.032.033c.257.208.514.305.868.305.77 0 1.269-.546 1.269-1.382V3.954h-.787v3.92c0 .562-.386.594-.498.594-.097 0-.241-.016-.338-.113-.112-.096-.16-.273-.16-.482V3.954h-.787v3.92c0 .562-.386.594-.498.594a.44.44 0 0 1-.321-.113c-.113-.096-.161-.273-.161-.482V3.954h-.787v3.92c0 .417.128.786.385 1.027.225.225.546.354.9.354.337.016.61-.097.867-.305z"/>
            <path fill-rule="nonzero" d="M97.853 8.42c-.128.048-.273.128-.45.176a1.942 1.942 0 0 1-.61.097c-.369 0-.706-.129-.883-.322-.129-.128-.273-.401-.273-.867v-.096h2.393V7.23c0-.627-.016-1.14-.401-1.558-.257-.273-.643-.466-1.157-.466a1.6 1.6 0 0 0-1.172.498c-.418.466-.45 1.076-.45 1.446 0 .433.048 1.076.466 1.525.273.29.706.563 1.365.563.29 0 .594-.049.915-.161.161-.048.354-.16.466-.225l-.209-.434zm-2.2-1.623c0-.45.128-.69.257-.819a.728.728 0 0 1 .578-.257c.209 0 .402.048.546.209.257.24.257.53.257.819v.16h-1.638v-.112zM101.355 5.609a1.662 1.662 0 0 0-1.076-.386c-.177 0-.37.032-.498.048-.113.032-.257.097-.386.129V3.874h-.706v4.963c.417.241.9.418 1.461.418.418 0 .98-.097 1.382-.61.32-.434.385-.98.385-1.43.016-.418-.016-1.157-.562-1.606zm-1.205.112c.273 0 .563.096.755.273.241.273.241.675.241 1.012v.337c0 .659-.112.932-.209 1.076-.112.145-.353.322-.755.322-.144 0-.32-.048-.465-.08a1.5 1.5 0 0 1-.322-.161V5.946l.755-.225z"/>
        </g>
        <g>
            <path d="M402.293 8.291v-.933h3.236V6.284h-3.236v-.778c0-.078.015-.14.093-.14h3.221V4.262h-3.765c-.452 0-.747.31-.747.855v3.548c0 .545.295.856.747.856h3.843V8.416h-3.299c-.078-.016-.093-.062-.093-.125zM411.318 5.382V4.277h-3.766c-.451 0-.747.311-.747.856v4.372h1.23V5.506c0-.062 0-.14.093-.14h3.19v.016zM422.272 3.452c-.14-.015-.28-.015-.436-.015h-2.38c-.156 0-.296 0-.436.015-1.619.125-2.257.996-2.257 2.692 0 1.665.685 2.552 2.257 2.692.14.016.295.016.45.016h.561v.669h1.23v-.67h.575c.156 0 .296 0 .436-.015 1.587-.14 2.256-1.027 2.256-2.692 0-1.711-.623-2.567-2.256-2.692zm-2.241 4.295h-.576c-.155 0-.295-.016-.435-.031-.778-.125-1.012-.638-1.012-1.556 0-.95.218-1.463 1.012-1.587.124-.016.28-.031.45-.031h.561v3.205zm2.24-.031a3.357 3.357 0 0 1-.435.03h-.576v-3.22h.56c.172 0 .312.016.452.031.793.125 1.011.638 1.011 1.587 0 .934-.233 1.447-1.011 1.572zM398.699 3.312c-.592 0-.965.327-1.26.996l-1.65 3.952-1.68-3.967c-.28-.67-.67-.996-1.26-.996-.701 0-1.137.42-1.137 1.307v4.901h1.276V4.791l1.696 3.967c.234.545.576.84 1.074.84.529 0 .856-.295 1.089-.84l1.712-4.014v4.761h1.275V4.62c-.015-.902-.435-1.307-1.135-1.307zM428.582 4.184h-.451c-1.914 0-2.677.856-2.677 2.692 0 1.804.778 2.707 2.692 2.707h.42c1.899 0 2.708-.903 2.708-2.707 0-1.82-.747-2.692-2.692-2.692zm0 4.31h-.451c-1.105 0-1.447-.53-1.447-1.603 0-1.09.31-1.618 1.478-1.618h.404c1.167 0 1.463.529 1.463 1.618 0 1.09-.342 1.603-1.447 1.603zM413.605 4.137c-.016 0-.016 0 0 0-.498 0-.825.233-1.043.716l-1.665 3.719-.42.933h1.354l.482-1.136h2.583l.498 1.136h1.307l-2.07-4.637c-.217-.466-.56-.731-1.026-.731zm-.903 3.19l.794-1.883c.047-.109.155-.109.187 0l.793 1.883h-1.774zM436.19 4.262v1.991h-2.676V4.262h-1.229v5.243h1.23V7.39h2.676v2.116h1.213V4.262z"/>
        </g>
        <g>
            <path d="M380.46 8.212s-.78.106-1.666.106c-1.1 0-1.313-.354-1.313-1.206V6.066c0-.887.195-1.224 1.313-1.224.798 0 1.578.106 1.578.106l.107-1.596s-.994-.142-1.845-.142c-2.27 0-3.104.745-3.104 2.572v1.596c0 2.022 1.011 2.59 3.104 2.59.834 0 1.969-.142 1.969-.142l-.142-1.614zM369.056 4.966h1.88v4.895h1.97V4.966h1.897l.106-1.65h-5.96zM365.048 9.205l1.046-2.518h.125l.212 3.174h1.898l-.426-6.544h-1.844l-1.579 3.707h-.106l-1.65-3.707h-1.809l-.425 6.544h1.844l.195-3.174h.107l1.17 2.518z"/>
            <path fill-rule="nonzero" d="M357.208 11.813a1.31 1.31 0 0 1-1.312 1.312H345.43a1.31 1.31 0 0 1-1.312-1.313V1.348A1.31 1.31 0 0 1 345.43.035h10.465a1.31 1.31 0 0 1 1.312 1.313v10.464zm-6.544-.373c2.447 0 3.547-1.951 3.547-3.884 0-2.714-1.88-5.818-3.547-5.818-1.65 0-3.53 3.104-3.53 5.818 0 1.933 1.1 3.884 3.53 3.884z"/>
        </g>
        <g>
            <path fill-rule="nonzero" d="M134.633 6.538l-1.412 3.168h-1.034l1.55-3.375c-.723-.362-1.205-1.033-1.205-2.273 0-1.74 1.102-2.6 2.393-2.6h1.326v8.248h-.895V6.538h-.723zm.723-4.34h-.465c-.723 0-1.412.465-1.412 1.843 0 1.326.637 1.756 1.412 1.756h.465V2.198zM140.539 3.886v5.82h-.896V7.089H138.3v2.6h-.895v-5.82h.895V6.33h1.343V3.869l.896.017zm4.632 6.956h-.81V9.706h-2.496v1.136h-.81V8.966h.362c.534-1.24.586-3.031.586-4.58v-.5h2.703v5.08h.465v1.876zm-1.36-6.233h-1v.103c0 1.223-.05 3.014-.533 4.254h1.55l-.017-4.357zm3.84 5.166c-1.206 0-1.946-.964-1.946-2.738 0-1.877.516-3.237 1.756-3.237.964 0 1.602.723 1.602 2.703v.5h-2.428c0 1.308.361 2.014 1.084 2.014.5 0 .913-.224 1.137-.396l.207.689c-.362.293-.844.465-1.412.465zm-1-3.513h1.482c0-.999-.155-1.722-.69-1.722-.533 0-.74.672-.791 1.722zm4.237.534v2.893h-.896v-5.82h.896v2.703l1.395-2.686h.912l-1.446 2.738 1.653 3.082h-.982l-1.532-2.91zm2.634 0c0-1.825.706-2.996 2.067-2.996.516 0 .826.138 1.067.292l-.12.861c-.241-.206-.586-.396-.965-.396-.654 0-1.102.724-1.102 2.187 0 1.447.345 2.29 1.068 2.29.43 0 .775-.172.981-.361l.207.671c-.31.259-.689.43-1.205.43-1.257 0-1.998-.998-1.998-2.978zM162.855 9.706h-3.53l-.086 1.378h-.448V9.24h.242c.396-.327.602-1.257.723-2.428.12-1.222.155-3.048.19-5.338h2.892v7.783h.568v1.843h-.447l-.104-1.395zm-.62-7.783h-1.79c-.035 2.083-.087 3.685-.19 4.873-.103 1.24-.293 2.049-.603 2.428h2.566V1.923h.017zM165.765 9.344c.775 0 1.171-.62 1.171-.62l.172.431s-.43.654-1.36.654c-1.24 0-1.808-1.119-1.808-3.03 0-1.912.723-3.03 1.705-3.03.998 0 1.653 1.05 1.463 3.116h-2.634c.034 1.618.448 2.48 1.291 2.48zm-1.257-2.892h2.118c.086-1.55-.361-2.239-.964-2.239-.62 0-1.12.792-1.154 2.239z"/>
            <path d="M170.673 6.9h-1.98v2.806h-.534v-5.82h.534v2.566h1.98V3.886h.534v5.82h-.534z"/>
            <path fill-rule="nonzero" d="M172.498 3.886h.534v2.152h.43c1.102 0 1.826.603 1.826 1.808 0 1.24-.758 1.843-1.86 1.843h-.93V3.886zm.551 2.583v2.807h.344c.827 0 1.378-.397 1.378-1.412 0-.982-.482-1.395-1.309-1.395h-.413z"/>
            <path d="M176.751 4.334v5.372h-.534v-5.82h2.463v.448h-1.929zM182.227 5.642c0-.293.017-.55.052-.792h-.035c-.086.258-.19.5-.31.758l-1.894 4.098h-.465v-5.82h.5v4.046c0 .31-.018.569-.052.827h.034c.086-.258.19-.517.31-.775l1.894-4.08h.465v5.82h-.516V5.641h.017z"/>
        </g>
        <g>
            <path d="M53.29 6.579c0-1.86.786-3.528 2.037-4.7A5.902 5.902 0 0 0 51.639.614a5.982 5.982 0 0 0 0 11.963 5.916 5.916 0 0 0 3.688-1.283A6.475 6.475 0 0 1 53.29 6.58zM59.753.597a5.916 5.916 0 0 0-3.688 1.283A6.448 6.448 0 0 1 58.1 6.595c0 1.86-.786 3.528-2.036 4.698a5.902 5.902 0 0 0 3.688 1.267 5.982 5.982 0 0 0 0-11.963z"/>
            <path d="M53.771 6.579c0 1.731.738 3.303 1.925 4.393A5.956 5.956 0 0 0 57.62 6.58a5.956 5.956 0 0 0-1.924-4.394 5.982 5.982 0 0 0-1.925 4.394z"/>
        </g>
    </g>
</svg>
